<?xml version="1.0" standalone="no"?>
<!DOCTYPE svg PUBLIC "-//W3C//DTD SVG 20010904//EN"
 "http://www.w3.org/TR/2001/REC-SVG-20010904/DTD/svg10.dtd">
<svg version="1.0" xmlns="http://www.w3.org/2000/svg"
 width="60.000000pt" height="60.000000pt" viewBox="0 0 60.000000 60.000000"
 preserveAspectRatio="xMidYMid meet">

<g transform="translate(0.000000,60.000000) scale(0.100000,-0.100000)"
fill="#000000" stroke="none">
<path d="M52 488 c-17 -17 -17 -359 0 -376 17 -17 479 -17 496 0 17 17 17 359
0 376 -17 17 -479 17 -496 0z m170 -188 l26 -80 -23 0 c-14 0 -25 7 -28 20 -7
26 -43 26 -57 0 -6 -11 -19 -20 -29 -20 -18 0 -18 4 7 80 24 73 29 80 52 80
23 0 28 -7 52 -80z m175 54 c15 -24 15 -29 2 -53 -10 -18 -24 -27 -47 -29 -26
-3 -32 -8 -32 -28 0 -17 -5 -24 -20 -24 -18 0 -20 7 -20 80 l0 80 50 0 c42 0
52 -4 67 -26z m103 -54 c0 -73 -2 -80 -20 -80 -18 0 -20 7 -20 80 0 73 2 80
20 80 18 0 20 -7 20 -80z"/>
<path d="M160 323 c0 -13 0 -26 -1 -30 0 -4 4 -9 10 -11 14 -5 14 28 1 48 -8
12 -10 11 -10 -7z"/>
<path d="M320 325 c0 -18 5 -25 19 -25 26 0 36 17 21 35 -19 23 -40 18 -40
-10z"/>
</g>
</svg>
